<?xml version="1.0" standalone="no"?>
<!DOCTYPE svg PUBLIC "-//W3C//DTD SVG 20010904//EN"
 "http://www.w3.org/TR/2001/REC-SVG-20010904/DTD/svg10.dtd">
<svg version="1.0" xmlns="http://www.w3.org/2000/svg"
 width="150.000000pt" height="150.000000pt" viewBox="0 0 150.000000 150.000000"
 preserveAspectRatio="xMidYMid meet">

<g transform="translate(0.000000,150.000000) scale(0.100000,-0.100000)"
fill="#22c55e" stroke="none">
<path d="M0 750 l0 -750 750 0 750 0 0 750 0 750 -750 0 -750 0 0 -750z m290
174 c13 -13 13 -16 0 -24 -8 -5 -25 -7 -36 -4 -32 8 -64 -12 -64 -41 0 -22 4
-25 40 -25 31 0 42 5 51 23 16 31 28 37 72 37 23 0 44 -7 55 -18 17 -17 20
-17 29 -4 18 30 43 6 43 -41 0 -51 21 -77 48 -60 10 5 18 23 20 39 6 68 8 70
64 73 124 8 151 6 161 -10 9 -14 12 -14 29 3 14 14 30 18 65 16 61 -4 69 -26
11 -30 -31 -2 -44 -8 -46 -20 -3 -15 4 -18 32 -18 25 0 36 -4 36 -15 0 -11
-11 -15 -36 -15 -31 0 -35 -3 -32 -22 3 -20 9 -23 45 -23 l43 0 0 53 c0 59 13
92 35 92 11 0 15 -13 15 -52 0 -66 6 -74 53 -83 27 -5 37 -12 35 -23 -4 -22
-70 -37 -108 -24 -19 7 -41 7 -62 1 -42 -12 -85 -3 -98 21 -6 10 -10 39 -10
64 0 44 -1 46 -29 46 -27 0 -28 -2 -35 -62 -3 -34 -12 -65 -18 -69 -24 -15
-38 13 -38 72 0 59 0 59 -30 59 -28 0 -30 -2 -30 -39 0 -52 -36 -91 -85 -91
-46 0 -85 36 -85 79 0 29 0 29 -29 15 l-29 -14 30 -32 c18 -19 25 -35 19 -41
-14 -14 -49 1 -67 29 -21 32 -34 30 -31 -3 1 -20 -3 -29 -17 -31 -24 -5 -36
14 -36 59 l0 35 -45 -10 c-44 -10 -45 -12 -45 -48 0 -31 -3 -38 -20 -38 -27 0
-41 39 -43 117 -2 52 2 65 22 87 35 37 117 43 151 10z m830 -94 c0 -64 0 -64
60 -74 34 -6 35 -5 55 46 11 28 32 61 48 72 26 19 30 19 55 6 56 -31 98 -170
52 -170 -13 0 -24 10 -30 25 -8 20 -16 25 -45 25 -28 0 -38 -5 -47 -25 -8 -19
-18 -25 -42 -24 -17 1 -51 -1 -76 -4 -70 -8 -80 2 -80 79 0 70 12 104 35 104
12 0 15 -14 15 -60z m-615 -179 c3 -5 -5 -11 -17 -13 -30 -4 -35 -28 -6 -29
l23 -2 -23 -4 c-15 -3 -22 -10 -18 -18 3 -8 1 -17 -4 -20 -6 -4 -10 13 -10 39
0 42 7 53 37 55 6 1 14 -3 18 -8z m175 -1 c0 -5 -5 -10 -11 -10 -5 0 -7 5 -4
10 3 6 8 10 11 10 2 0 4 -4 4 -10z m170 0 c0 -5 -9 -10 -20 -10 -25 0 -27 -30
-2 -31 16 -1 16 -2 0 -6 -10 -2 -18 -14 -19 -26 0 -19 -2 -18 -11 6 -13 37 3
77 32 77 11 0 20 -4 20 -10z m-121 -38 c-13 -5 -11 -40 4 -45 7 -3 5 -6 -5 -6
-13 -1 -18 7 -18 23 0 14 -4 28 -10 31 -6 4 -5 11 2 19 11 11 15 10 25 -3 6
-9 7 -17 2 -19z m-188 7 c-18 -7 -22 -15 -19 -34 3 -14 1 -25 -3 -25 -10 0
-12 54 -2 63 3 4 16 7 27 6 19 0 19 -1 -3 -10z m67 -47 c10 2 18 14 20 31 2
15 7 25 12 22 4 -3 5 -17 1 -33 -6 -22 -13 -27 -37 -27 -26 0 -29 3 -31 35
l-2 35 10 -33 c7 -23 15 -32 27 -30z m313 20 c7 -33 7 -33 -30 -30 -45 4 -50
30 -6 38 21 4 26 8 17 14 -7 4 -19 5 -27 2 -8 -3 -15 -1 -15 5 0 6 12 9 27 7
22 -2 29 -10 34 -36z m52 31 c-18 -3 -23 -11 -23 -36 -1 -27 -2 -29 -11 -14
-17 28 -2 57 29 56 24 -2 24 -2 5 -6z m61 -10 c6 -15 8 -14 20 2 18 25 36 10
35 -28 -2 -30 -2 -31 -6 -4 -5 31 -18 35 -32 10 -9 -17 -11 -17 -25 2 -15 20
-15 20 -16 -2 0 -12 -4 -25 -10 -28 -13 -8 -13 21 0 46 13 23 26 24 34 2z
m-367 -40 c-3 -10 -5 -2 -5 17 0 19 2 27 5 18 2 -10 2 -26 0 -35z"/>
<path d="M324 845 c-10 -24 12 -42 34 -29 24 16 21 38 -6 42 -13 2 -25 -3 -28
-13z"/>
<path d="M1296 828 c-18 -25 -17 -27 14 -33 33 -6 41 2 28 30 -14 31 -22 31
-42 3z"/>
<path d="M870 580 c0 -5 9 -10 20 -10 11 0 20 5 20 10 0 6 -9 10 -20 10 -11 0
-20 -4 -20 -10z"/>
</g>
</svg>
